<svg width="1440" height="369" viewBox="0 0 1440 369" fill="none" xmlns="http://www.w3.org/2000/svg">
<path d="M1164.95 25.6784C1347.56 11.0249 1443.05 60.6014 1467.97 87.2213L1471.12 290.536L-131.38 278.719C-138.575 212.582 -115.138 55.8548 -35.7013 95.8029C63.5939 145.738 168.52 107.403 315.631 48.2693C462.742 -10.8643 483.978 36.2545 737.767 83.7902C991.556 131.326 936.689 43.9952 1164.95 25.6784Z" fill="#E74B3B"/>
<path d="M1161.99 28.2777C1344.3 9.54597 1440.69 63.6843 1466.09 93.0949L1472.97 320.148L-129.535 327.698C-137.941 253.919 -117.377 78.558 -37.2197 122.15C62.977 176.639 167.187 132.462 313.195 64.5078C459.203 -3.44665 481.3 48.908 735.925 98.7172C990.551 148.526 934.092 51.6923 1161.99 28.2777Z" fill="white"/>
</svg>
